<mxfile host="65bd71144e">
    <diagram id="tGFCa2_bgQR2mLeRR7XN" name="Character">
        <mxGraphModel dx="894" dy="829" grid="1" gridSize="10" guides="1" tooltips="1" connect="1" arrows="1" fold="1" page="1" pageScale="1" pageWidth="1169" pageHeight="827" math="0" shadow="0">
            <root>
                <mxCell id="0"/>
                <mxCell id="1" parent="0"/>
                <mxCell id="10" value="" style="rounded=1;whiteSpace=wrap;html=1;" parent="1" vertex="1">
                    <mxGeometry x="120" y="40" width="240" height="80" as="geometry"/>
                </mxCell>
                <mxCell id="13" style="edgeStyle=none;html=1;fillColor=#d80073;strokeColor=#FF0000;" parent="1" source="11" target="12" edge="1">
                    <mxGeometry relative="1" as="geometry"/>
                </mxCell>
                <mxCell id="11" value="" style="ellipse;whiteSpace=wrap;html=1;aspect=fixed;" parent="1" vertex="1">
                    <mxGeometry x="130" y="45" width="70" height="70" as="geometry"/>
                </mxCell>
                <mxCell id="12" value="" style="ellipse;whiteSpace=wrap;html=1;aspect=fixed;" parent="1" vertex="1">
                    <mxGeometry x="280" y="45" width="70" height="70" as="geometry"/>
                </mxCell>
                <mxCell id="14" value="Character" style="text;html=1;strokeColor=none;fillColor=none;align=center;verticalAlign=middle;whiteSpace=wrap;rounded=0;fontColor=#FF0000;" parent="1" vertex="1">
                    <mxGeometry x="210" y="50" width="60" height="30" as="geometry"/>
                </mxCell>
                <mxCell id="18" style="edgeStyle=none;html=1;entryX=0;entryY=0.5;entryDx=0;entryDy=0;strokeColor=#FF0000;" parent="1" target="11" edge="1">
                    <mxGeometry relative="1" as="geometry">
                        <mxPoint x="80" y="80" as="sourcePoint"/>
                    </mxGeometry>
                </mxCell>
                <mxCell id="19" value="" style="ellipse;whiteSpace=wrap;html=1;aspect=fixed;" parent="1" vertex="1">
                    <mxGeometry x="285" y="50" width="60" height="60" as="geometry"/>
                </mxCell>
            </root>
        </mxGraphModel>
    </diagram>
    <diagram id="Qnw7ySbk5c_ul3EEwXrY" name="Empty">
        <mxGraphModel dx="894" dy="829" grid="1" gridSize="10" guides="1" tooltips="1" connect="1" arrows="1" fold="1" page="1" pageScale="1" pageWidth="1169" pageHeight="827" math="0" shadow="0">
            <root>
                <mxCell id="0"/>
                <mxCell id="1" parent="0"/>
                <mxCell id="0WXQA4dx3UrmkCIalAJX-1" value="" style="rounded=1;whiteSpace=wrap;html=1;" parent="1" vertex="1">
                    <mxGeometry x="120" y="40" width="240" height="80" as="geometry"/>
                </mxCell>
                <mxCell id="0WXQA4dx3UrmkCIalAJX-2" style="edgeStyle=none;html=1;fillColor=#d80073;strokeColor=#FF0000;" parent="1" source="0WXQA4dx3UrmkCIalAJX-3" target="0WXQA4dx3UrmkCIalAJX-4" edge="1">
                    <mxGeometry relative="1" as="geometry"/>
                </mxCell>
                <mxCell id="0WXQA4dx3UrmkCIalAJX-3" value="" style="ellipse;whiteSpace=wrap;html=1;aspect=fixed;" parent="1" vertex="1">
                    <mxGeometry x="130" y="45" width="70" height="70" as="geometry"/>
                </mxCell>
                <mxCell id="0WXQA4dx3UrmkCIalAJX-4" value="" style="ellipse;whiteSpace=wrap;html=1;aspect=fixed;" parent="1" vertex="1">
                    <mxGeometry x="280" y="45" width="70" height="70" as="geometry"/>
                </mxCell>
                <mxCell id="0WXQA4dx3UrmkCIalAJX-5" value="ε" style="text;html=1;strokeColor=none;fillColor=none;align=center;verticalAlign=middle;whiteSpace=wrap;rounded=0;fontColor=#FF0000;fontSize=25;" parent="1" vertex="1">
                    <mxGeometry x="210" y="50" width="60" height="30" as="geometry"/>
                </mxCell>
                <mxCell id="0WXQA4dx3UrmkCIalAJX-6" style="edgeStyle=none;html=1;strokeColor=#FF0000;" parent="1" edge="1">
                    <mxGeometry relative="1" as="geometry">
                        <mxPoint x="130" y="80" as="targetPoint"/>
                        <mxPoint x="80" y="80" as="sourcePoint"/>
                    </mxGeometry>
                </mxCell>
                <mxCell id="0WXQA4dx3UrmkCIalAJX-8" value="" style="ellipse;whiteSpace=wrap;html=1;aspect=fixed;" parent="1" vertex="1">
                    <mxGeometry x="285" y="50" width="60" height="60" as="geometry"/>
                </mxCell>
            </root>
        </mxGraphModel>
    </diagram>
    <diagram id="kEmy3uVm9RMkgtBZG4GF" name="Star">
        <mxGraphModel dx="894" dy="829" grid="1" gridSize="10" guides="1" tooltips="1" connect="1" arrows="1" fold="1" page="1" pageScale="1" pageWidth="1169" pageHeight="827" math="0" shadow="0">
            <root>
                <mxCell id="0"/>
                <mxCell id="1" parent="0"/>
                <mxCell id="82Do8YMJvzkN40-gDmjr-1" value="" style="rounded=1;whiteSpace=wrap;html=1;fontSize=25;fontColor=#FF0000;" parent="1" vertex="1">
                    <mxGeometry x="200" y="40" width="240" height="160" as="geometry"/>
                </mxCell>
                <mxCell id="0akfK16iOvbwiMonnUNJ-1" value="" style="ellipse;whiteSpace=wrap;html=1;aspect=fixed;" parent="1" vertex="1">
                    <mxGeometry x="210" y="50" width="60" height="60" as="geometry"/>
                </mxCell>
                <mxCell id="0akfK16iOvbwiMonnUNJ-7" style="edgeStyle=none;html=1;strokeColor=#FF0000;fontSize=25;fontColor=#FF0000;" parent="1" source="0akfK16iOvbwiMonnUNJ-2" target="0akfK16iOvbwiMonnUNJ-1" edge="1">
                    <mxGeometry relative="1" as="geometry"/>
                </mxCell>
                <mxCell id="0akfK16iOvbwiMonnUNJ-2" value="" style="ellipse;whiteSpace=wrap;html=1;aspect=fixed;" parent="1" vertex="1">
                    <mxGeometry x="360" y="50" width="60" height="60" as="geometry"/>
                </mxCell>
                <mxCell id="0akfK16iOvbwiMonnUNJ-10" style="edgeStyle=none;html=1;entryX=1;entryY=1;entryDx=0;entryDy=0;strokeColor=#FF0000;fontSize=25;fontColor=#FF0000;" parent="1" source="0akfK16iOvbwiMonnUNJ-3" target="0akfK16iOvbwiMonnUNJ-1" edge="1">
                    <mxGeometry relative="1" as="geometry"/>
                </mxCell>
                <mxCell id="0akfK16iOvbwiMonnUNJ-3" value="" style="ellipse;whiteSpace=wrap;html=1;aspect=fixed;" parent="1" vertex="1">
                    <mxGeometry x="360" y="130" width="60" height="60" as="geometry"/>
                </mxCell>
                <mxCell id="0akfK16iOvbwiMonnUNJ-5" value="" style="ellipse;whiteSpace=wrap;html=1;aspect=fixed;" parent="1" vertex="1">
                    <mxGeometry x="365" y="55" width="50" height="50" as="geometry"/>
                </mxCell>
                <mxCell id="0akfK16iOvbwiMonnUNJ-6" value="" style="ellipse;whiteSpace=wrap;html=1;aspect=fixed;" parent="1" vertex="1">
                    <mxGeometry x="365" y="135" width="50" height="50" as="geometry"/>
                </mxCell>
                <mxCell id="0akfK16iOvbwiMonnUNJ-12" style="edgeStyle=none;html=1;entryX=0;entryY=0.5;entryDx=0;entryDy=0;strokeColor=#FF0000;fontSize=25;fontColor=#FF0000;" parent="1" source="0akfK16iOvbwiMonnUNJ-11" target="0akfK16iOvbwiMonnUNJ-1" edge="1">
                    <mxGeometry relative="1" as="geometry"/>
                </mxCell>
                <mxCell id="0akfK16iOvbwiMonnUNJ-11" value="" style="ellipse;whiteSpace=wrap;html=1;aspect=fixed;strokeColor=#FF0000;" parent="1" vertex="1">
                    <mxGeometry x="80" y="50" width="60" height="60" as="geometry"/>
                </mxCell>
                <mxCell id="0akfK16iOvbwiMonnUNJ-13" value="" style="ellipse;whiteSpace=wrap;html=1;aspect=fixed;strokeColor=#FF0000;" parent="1" vertex="1">
                    <mxGeometry x="85" y="55" width="50" height="50" as="geometry"/>
                </mxCell>
                <mxCell id="BBVBnve_GYDOnsTXC1Be-1" value="ε" style="text;html=1;strokeColor=none;fillColor=none;align=center;verticalAlign=middle;whiteSpace=wrap;rounded=0;fontColor=#FF0000;fontSize=25;" parent="1" vertex="1">
                    <mxGeometry x="280" y="50" width="60" height="30" as="geometry"/>
                </mxCell>
                <mxCell id="BBVBnve_GYDOnsTXC1Be-2" value="ε" style="text;html=1;strokeColor=none;fillColor=none;align=center;verticalAlign=middle;whiteSpace=wrap;rounded=0;fontColor=#FF0000;fontSize=25;" parent="1" vertex="1">
                    <mxGeometry x="280" y="120" width="60" height="30" as="geometry"/>
                </mxCell>
                <mxCell id="BBVBnve_GYDOnsTXC1Be-3" value="ε" style="text;html=1;strokeColor=none;fillColor=none;align=center;verticalAlign=middle;whiteSpace=wrap;rounded=0;fontColor=#FF0000;fontSize=25;" parent="1" vertex="1">
                    <mxGeometry x="140" y="50" width="60" height="30" as="geometry"/>
                </mxCell>
                <mxCell id="mRIX1iPTEDQpcgTcCrEE-2" style="edgeStyle=none;html=1;entryX=0;entryY=0.5;entryDx=0;entryDy=0;strokeColor=#FF0000;fontSize=25;fontColor=#FF0000;" parent="1" target="0akfK16iOvbwiMonnUNJ-11" edge="1">
                    <mxGeometry relative="1" as="geometry">
                        <mxPoint x="40" y="80" as="sourcePoint"/>
                    </mxGeometry>
                </mxCell>
            </root>
        </mxGraphModel>
    </diagram>
    <diagram name="Union" id="FeolHHJY4VrLBvBt1UjH">
        <mxGraphModel dx="894" dy="829" grid="1" gridSize="10" guides="1" tooltips="1" connect="1" arrows="1" fold="1" page="1" pageScale="1" pageWidth="1169" pageHeight="827" math="0" shadow="0">
            <root>
                <mxCell id="0-QP6990VXkk9zEvSjt0-0"/>
                <mxCell id="0-QP6990VXkk9zEvSjt0-1" parent="0-QP6990VXkk9zEvSjt0-0"/>
                <mxCell id="0-QP6990VXkk9zEvSjt0-2" value="" style="rounded=1;whiteSpace=wrap;html=1;fontSize=25;fontColor=#FF0000;" parent="0-QP6990VXkk9zEvSjt0-1" vertex="1">
                    <mxGeometry x="220" y="40" width="240" height="160" as="geometry"/>
                </mxCell>
                <mxCell id="0-QP6990VXkk9zEvSjt0-3" value="" style="ellipse;whiteSpace=wrap;html=1;aspect=fixed;" parent="0-QP6990VXkk9zEvSjt0-1" vertex="1">
                    <mxGeometry x="230" y="50" width="60" height="60" as="geometry"/>
                </mxCell>
                <mxCell id="0-QP6990VXkk9zEvSjt0-5" value="" style="ellipse;whiteSpace=wrap;html=1;aspect=fixed;" parent="0-QP6990VXkk9zEvSjt0-1" vertex="1">
                    <mxGeometry x="380" y="50" width="60" height="60" as="geometry"/>
                </mxCell>
                <mxCell id="0-QP6990VXkk9zEvSjt0-7" value="" style="ellipse;whiteSpace=wrap;html=1;aspect=fixed;" parent="0-QP6990VXkk9zEvSjt0-1" vertex="1">
                    <mxGeometry x="380" y="130" width="60" height="60" as="geometry"/>
                </mxCell>
                <mxCell id="0-QP6990VXkk9zEvSjt0-8" value="" style="ellipse;whiteSpace=wrap;html=1;aspect=fixed;" parent="0-QP6990VXkk9zEvSjt0-1" vertex="1">
                    <mxGeometry x="385" y="55" width="50" height="50" as="geometry"/>
                </mxCell>
                <mxCell id="0-QP6990VXkk9zEvSjt0-9" value="" style="ellipse;whiteSpace=wrap;html=1;aspect=fixed;" parent="0-QP6990VXkk9zEvSjt0-1" vertex="1">
                    <mxGeometry x="385" y="135" width="50" height="50" as="geometry"/>
                </mxCell>
                <mxCell id="LVhkC_SHrTvswxkzIhI8-0" value="" style="rounded=1;whiteSpace=wrap;html=1;fontSize=25;fontColor=#FF0000;" parent="0-QP6990VXkk9zEvSjt0-1" vertex="1">
                    <mxGeometry x="220" y="214" width="240" height="160" as="geometry"/>
                </mxCell>
                <mxCell id="LVhkC_SHrTvswxkzIhI8-1" value="" style="ellipse;whiteSpace=wrap;html=1;aspect=fixed;" parent="0-QP6990VXkk9zEvSjt0-1" vertex="1">
                    <mxGeometry x="230" y="224" width="60" height="60" as="geometry"/>
                </mxCell>
                <mxCell id="LVhkC_SHrTvswxkzIhI8-2" value="" style="ellipse;whiteSpace=wrap;html=1;aspect=fixed;" parent="0-QP6990VXkk9zEvSjt0-1" vertex="1">
                    <mxGeometry x="380" y="224" width="60" height="60" as="geometry"/>
                </mxCell>
                <mxCell id="LVhkC_SHrTvswxkzIhI8-3" value="" style="ellipse;whiteSpace=wrap;html=1;aspect=fixed;" parent="0-QP6990VXkk9zEvSjt0-1" vertex="1">
                    <mxGeometry x="380" y="304" width="60" height="60" as="geometry"/>
                </mxCell>
                <mxCell id="LVhkC_SHrTvswxkzIhI8-4" value="" style="ellipse;whiteSpace=wrap;html=1;aspect=fixed;" parent="0-QP6990VXkk9zEvSjt0-1" vertex="1">
                    <mxGeometry x="385" y="229" width="50" height="50" as="geometry"/>
                </mxCell>
                <mxCell id="LVhkC_SHrTvswxkzIhI8-5" value="" style="ellipse;whiteSpace=wrap;html=1;aspect=fixed;" parent="0-QP6990VXkk9zEvSjt0-1" vertex="1">
                    <mxGeometry x="385" y="309" width="50" height="50" as="geometry"/>
                </mxCell>
                <mxCell id="LVhkC_SHrTvswxkzIhI8-11" style="edgeStyle=none;html=1;strokeColor=#FF0000;fontSize=25;fontColor=#FF0000;" parent="0-QP6990VXkk9zEvSjt0-1" source="LVhkC_SHrTvswxkzIhI8-8" target="LVhkC_SHrTvswxkzIhI8-1" edge="1">
                    <mxGeometry relative="1" as="geometry"/>
                </mxCell>
                <mxCell id="LVhkC_SHrTvswxkzIhI8-13" style="edgeStyle=none;html=1;strokeColor=#FF0000;fontSize=25;fontColor=#FF0000;" parent="0-QP6990VXkk9zEvSjt0-1" source="LVhkC_SHrTvswxkzIhI8-8" target="0-QP6990VXkk9zEvSjt0-3" edge="1">
                    <mxGeometry relative="1" as="geometry"/>
                </mxCell>
                <mxCell id="LVhkC_SHrTvswxkzIhI8-8" value="" style="ellipse;whiteSpace=wrap;html=1;aspect=fixed;strokeColor=#FF0000;" parent="0-QP6990VXkk9zEvSjt0-1" vertex="1">
                    <mxGeometry x="80" y="150" width="60" height="60" as="geometry"/>
                </mxCell>
                <mxCell id="iknnTdsQ2JhlityK3ehv-0" value="ε" style="text;html=1;strokeColor=none;fillColor=none;align=center;verticalAlign=middle;whiteSpace=wrap;rounded=0;fontColor=#FF0000;fontSize=25;" parent="0-QP6990VXkk9zEvSjt0-1" vertex="1">
                    <mxGeometry x="135" y="105" width="60" height="30" as="geometry"/>
                </mxCell>
                <mxCell id="iknnTdsQ2JhlityK3ehv-1" value="ε" style="text;html=1;strokeColor=none;fillColor=none;align=center;verticalAlign=middle;whiteSpace=wrap;rounded=0;fontColor=#FF0000;fontSize=25;" parent="0-QP6990VXkk9zEvSjt0-1" vertex="1">
                    <mxGeometry x="135" y="214" width="60" height="30" as="geometry"/>
                </mxCell>
                <mxCell id="8qzgOhJdf-6ch5L0clN5-1" style="edgeStyle=none;html=1;entryX=0;entryY=0.5;entryDx=0;entryDy=0;strokeColor=#FF0000;fontSize=25;fontColor=#FF0000;" parent="0-QP6990VXkk9zEvSjt0-1" target="LVhkC_SHrTvswxkzIhI8-8" edge="1">
                    <mxGeometry relative="1" as="geometry">
                        <mxPoint x="40" y="180" as="sourcePoint"/>
                    </mxGeometry>
                </mxCell>
            </root>
        </mxGraphModel>
    </diagram>
    <diagram name="Concat" id="RD1MDwm72CRoJqAvyhMT">
        <mxGraphModel dx="894" dy="829" grid="1" gridSize="10" guides="1" tooltips="1" connect="1" arrows="1" fold="1" page="1" pageScale="1" pageWidth="1169" pageHeight="827" math="0" shadow="0">
            <root>
                <mxCell id="EPjFXV6uWCKCtS7DC4z7-0"/>
                <mxCell id="EPjFXV6uWCKCtS7DC4z7-1" parent="EPjFXV6uWCKCtS7DC4z7-0"/>
                <mxCell id="EPjFXV6uWCKCtS7DC4z7-2" value="" style="rounded=1;whiteSpace=wrap;html=1;fontSize=25;fontColor=#FF0000;" parent="EPjFXV6uWCKCtS7DC4z7-1" vertex="1">
                    <mxGeometry x="380" y="40" width="240" height="160" as="geometry"/>
                </mxCell>
                <mxCell id="EPjFXV6uWCKCtS7DC4z7-3" value="" style="ellipse;whiteSpace=wrap;html=1;aspect=fixed;" parent="EPjFXV6uWCKCtS7DC4z7-1" vertex="1">
                    <mxGeometry x="390" y="50" width="60" height="60" as="geometry"/>
                </mxCell>
                <mxCell id="EPjFXV6uWCKCtS7DC4z7-4" value="" style="ellipse;whiteSpace=wrap;html=1;aspect=fixed;" parent="EPjFXV6uWCKCtS7DC4z7-1" vertex="1">
                    <mxGeometry x="540" y="50" width="60" height="60" as="geometry"/>
                </mxCell>
                <mxCell id="EPjFXV6uWCKCtS7DC4z7-5" value="" style="ellipse;whiteSpace=wrap;html=1;aspect=fixed;" parent="EPjFXV6uWCKCtS7DC4z7-1" vertex="1">
                    <mxGeometry x="540" y="130" width="60" height="60" as="geometry"/>
                </mxCell>
                <mxCell id="EPjFXV6uWCKCtS7DC4z7-6" value="" style="ellipse;whiteSpace=wrap;html=1;aspect=fixed;" parent="EPjFXV6uWCKCtS7DC4z7-1" vertex="1">
                    <mxGeometry x="545" y="55" width="50" height="50" as="geometry"/>
                </mxCell>
                <mxCell id="EPjFXV6uWCKCtS7DC4z7-7" value="" style="ellipse;whiteSpace=wrap;html=1;aspect=fixed;" parent="EPjFXV6uWCKCtS7DC4z7-1" vertex="1">
                    <mxGeometry x="545" y="135" width="50" height="50" as="geometry"/>
                </mxCell>
                <mxCell id="EPjFXV6uWCKCtS7DC4z7-8" value="" style="rounded=1;whiteSpace=wrap;html=1;fontSize=25;fontColor=#FF0000;" parent="EPjFXV6uWCKCtS7DC4z7-1" vertex="1">
                    <mxGeometry x="80" y="40" width="240" height="160" as="geometry"/>
                </mxCell>
                <mxCell id="EPjFXV6uWCKCtS7DC4z7-9" value="" style="ellipse;whiteSpace=wrap;html=1;aspect=fixed;" parent="EPjFXV6uWCKCtS7DC4z7-1" vertex="1">
                    <mxGeometry x="90" y="50" width="60" height="60" as="geometry"/>
                </mxCell>
                <mxCell id="72XCHiiq5vkOUgec1FAA-4" style="edgeStyle=none;html=1;strokeColor=#FF0000;fontSize=25;fontColor=#FF0000;" parent="EPjFXV6uWCKCtS7DC4z7-1" source="EPjFXV6uWCKCtS7DC4z7-10" target="EPjFXV6uWCKCtS7DC4z7-3" edge="1">
                    <mxGeometry relative="1" as="geometry"/>
                </mxCell>
                <mxCell id="EPjFXV6uWCKCtS7DC4z7-10" value="" style="ellipse;whiteSpace=wrap;html=1;aspect=fixed;" parent="EPjFXV6uWCKCtS7DC4z7-1" vertex="1">
                    <mxGeometry x="240" y="50" width="60" height="60" as="geometry"/>
                </mxCell>
                <mxCell id="72XCHiiq5vkOUgec1FAA-3" style="edgeStyle=none;html=1;entryX=0;entryY=1;entryDx=0;entryDy=0;strokeColor=#FF0000;fontSize=25;fontColor=#FF0000;" parent="EPjFXV6uWCKCtS7DC4z7-1" source="EPjFXV6uWCKCtS7DC4z7-11" target="EPjFXV6uWCKCtS7DC4z7-3" edge="1">
                    <mxGeometry relative="1" as="geometry"/>
                </mxCell>
                <mxCell id="EPjFXV6uWCKCtS7DC4z7-11" value="" style="ellipse;whiteSpace=wrap;html=1;aspect=fixed;" parent="EPjFXV6uWCKCtS7DC4z7-1" vertex="1">
                    <mxGeometry x="240" y="130" width="60" height="60" as="geometry"/>
                </mxCell>
                <mxCell id="EPjFXV6uWCKCtS7DC4z7-18" value="ε" style="text;html=1;strokeColor=none;fillColor=none;align=center;verticalAlign=middle;whiteSpace=wrap;rounded=0;fontColor=#FF0000;fontSize=25;" parent="EPjFXV6uWCKCtS7DC4z7-1" vertex="1">
                    <mxGeometry x="320" y="115" width="60" height="30" as="geometry"/>
                </mxCell>
                <mxCell id="72XCHiiq5vkOUgec1FAA-5" value="ε" style="text;html=1;strokeColor=none;fillColor=none;align=center;verticalAlign=middle;whiteSpace=wrap;rounded=0;fontColor=#FF0000;fontSize=25;" parent="EPjFXV6uWCKCtS7DC4z7-1" vertex="1">
                    <mxGeometry x="310" y="50" width="60" height="30" as="geometry"/>
                </mxCell>
                <mxCell id="X2T0EpGD5SmX6zaeLzww-4" style="edgeStyle=none;html=1;" parent="EPjFXV6uWCKCtS7DC4z7-1" target="EPjFXV6uWCKCtS7DC4z7-9" edge="1">
                    <mxGeometry relative="1" as="geometry">
                        <mxPoint x="40" y="80" as="sourcePoint"/>
                    </mxGeometry>
                </mxCell>
            </root>
        </mxGraphModel>
    </diagram>
</mxfile>